<svg version="1.2" xmlns="http://www.w3.org/2000/svg" viewBox="2 0 1500 1500" width="1500" height="1500">
	<title>QVolaCom(AntxDesign)</title>
	<defs>
		<clipPath clipPathUnits="userSpaceOnUse" id="cp1">
			<path d="m2 0h1500v1500h-1500z"/>
		</clipPath>
	</defs>
	<style>
		.s0 { fill: #ffffff } 
		.s1 { fill: #fb823b } 
	</style>
	<g id="(Isotipo)" clip-path="url(#cp1)">
		<g id="Isotipo">
			<g id="Vectorizado">
				<path id="Forma 2" fill-rule="evenodd" class="s0" d="m703.2 236.3c226.8-4.5 366.7 115.7 434.1 270.7 31 71.4 50.2 194.7 20.5 286-15.1 46.1-32.7 88.3-56.4 125.8-9.3 14.8-22.5 27.6-32 42.3q-0.6 0-1.3 0c-7.1-15.7-14.8-30.4-21.7-43.6-16.4-31.3-31.3-62.8-47.4-93.7-8.1-15.5-15.3-31.2-23.1-46.2-3.2-6.1-6-11-8.9-17.9 3.8-16.2 9.2-33.4 11.5-51.3 4.8-37-0.6-78.7-9-103.9-23-69.2-60.7-110.2-117.8-145-13.3-8.1-28.8-16.6-46.1-20.5-13.5-30.8-29.5-60.5-44.8-89.8-14.1-27.1-25.8-56-42.2-80.8-7.1-10.8-17.2-20.2-24.4-30.8 3.8 0 7 0 9-1.3zm-332.9 186c21.8 14.5 31.1 41.5 43.5 65.4 23.9 46.6 46.6 93.2 70.5 139.8-1.4 8.8-1.7 13.9-2.6 18q-0.6 24.4-1.3 48.8c3.4 29.8 7.1 51.7 16.7 74.4 17.1 40.8 44.5 80.5 78.1 105.2 11 8.1 22.9 16 34.5 23 3.7 2.3 8.6 4.5 12.8 5.2q4.5 10.2 9 20.5c7.7 14.8 15.1 29.6 23 44.9 17.5 33.7 33.5 68.4 51.3 102.6 8.1 15.8 17 32.6 25.6 50.1q-7.1 0-14.1 0-28.2-2.6-56.4-5.2c-36.1-8.9-70.1-15.9-101.1-29.5-127.1-55.9-208.4-149.8-253.5-288.6-19.2-59-26-165.1-6.4-229.6 9.9-32.8 22.3-62.8 37.1-91.1 10.8-20.7 21.7-35.8 33.3-53.9z"/>
				<path id="Forma 1" fill-rule="evenodd" class="s1" d="m461.2 200.4c12.7 0.8 23.7-3.1 53.8 3.8 27.9 6.4 54.6 16.2 75.5 30.8 69.9 48.8 100.4 141.3 140.9 219.4 36.5 70.3 71.9 142.9 108.8 212.9 21.3 40.4 41.4 80.8 61.5 121.9 5.1 10.4 8.7 20.5 14.1 30.8 16.8 32.3 40.1 75.9 51.2 98.8 0.3 0.6 12.8 28 19.2 41 14.5 29.4 30.9 59.8 46.1 88.5 8.1 15.5 13.2 32.3 23 46.2 47.8 68.1 141.7 101.7 249.7 101.3q0 0.7 0 1.3-0.6 0-1.3 0c-13.6 13.8-32.9 21.7-49.9 32.1-46.6 28.5-98.2 48.6-158.8 64.1-15.5 4-61.8 9.4-81.9 5.2-11.8-2.5-31.5-3.7-47.4-9-47.5-15.9-83.9-47.3-110.1-84.7-15.6-22.2-25.5-48.1-38.4-73.1-23.6-45.4-45.4-91.4-69.2-137.3-68.5-132-133.6-267.1-202.3-398.9-21.2-40.8-40.5-81.7-61.4-121.9-15.6-30-28.2-57.8-47.4-83.4-8.2-10.8-21-20.1-32-28.2-52.7-38.7-119.2-57.9-203.6-57.7 0-0.9-1.3-0.5-1.3-1.3 11.2-8.2 32.7-22.7 43.5-29.5 31.6-19.8 68.5-36.2 105-50 23.4-8.9 49-12.8 74.3-19.3 12.8-1.3 23-3.2 38.4-3.8z"/>
			</g>
		</g>
	</g>
</svg>